HIERARCHY
ROOT Hips
{
    OFFSET 0.000000 0.000000 0.000000
    CHANNELS 6 Xposition Yposition Zposition Zrotation Xrotation Yrotation
    JOINT Spine
    {
        OFFSET -0.000000 6.925600 0.000000
        CHANNELS 3 Zrotation Xrotation Yrotation
        JOINT Spine1
        {
            OFFSET -0.000000 16.343796 0.000000
            CHANNELS 3 Zrotation Xrotation Yrotation
            JOINT Neck
            {
                OFFSET -0.000000 18.032967 0.000000
                CHANNELS 3 Zrotation Xrotation Yrotation
                JOINT Head
                {
                    OFFSET -0.000000 13.091072 1.689171
                    CHANNELS 3 Zrotation Xrotation Yrotation
                    End Site
                    {
                        OFFSET -0.000000 16.891708 0.000000
                    }
                }
            }
            JOINT LeftShoulder
            {
                OFFSET 3.336773 14.146137 -0.012206
                CHANNELS 3 Zrotation Xrotation Yrotation
                JOINT LeftArm
                {
                    OFFSET 11.765518 0.000000 0.000000
                    CHANNELS 3 Zrotation Xrotation Yrotation
                    JOINT LeftForeArm
                    {
                        OFFSET 25.163450 0.000000 0.000000
                        CHANNELS 3 Zrotation Xrotation Yrotation
                        JOINT LeftHand
                        {
                            OFFSET 21.783554 0.000000 0.000000
                            CHANNELS 3 Zrotation Xrotation Yrotation
                            End Site
                            {
                                OFFSET 12.668781 0.000000 0.000000
                            }
                        }
                    }
                }
            }
            JOINT RightShoulder
            {
                OFFSET -3.409204 14.146137 -0.012206
                CHANNELS 3 Zrotation Xrotation Yrotation
                JOINT RightArm
                {
                    OFFSET -11.765518 0.000000 0.000000
                    CHANNELS 3 Zrotation Xrotation Yrotation
                    JOINT RightForeArm
                    {
                        OFFSET -25.163450 0.000000 0.000000
                        CHANNELS 3 Zrotation Xrotation Yrotation
                        JOINT RightHand
                        {
                            OFFSET -21.783554 0.000000 0.000000
                            CHANNELS 3 Zrotation Xrotation Yrotation
                            End Site
                            {
                                OFFSET -12.668781 0.000000 0.000000
                            }
                        }
                    }
                }
            }
        }
    }
    JOINT LeftUpLeg
    {
        OFFSET 8.445854 0.000000 0.000000
        CHANNELS 3 Zrotation Xrotation Yrotation
        JOINT LeftLeg
        {
            OFFSET -0.000000 -40.674755 0.000000
            CHANNELS 3 Zrotation Xrotation Yrotation
            JOINT LeftFoot
            {
                OFFSET -0.000000 -37.111794 0.000000
                CHANNELS 3 Zrotation Xrotation Yrotation
                JOINT LeftToeBase
                {
                    OFFSET -0.000000 -5.489805 12.668781
                    CHANNELS 3 Zrotation Xrotation Yrotation
                    End Site
                    {
                        OFFSET -0.000000 0.000000 3.378341
                    }
                }
            }
        }
    }
    JOINT RightUpLeg
    {
        OFFSET -8.445854 0.000000 0.000000
        CHANNELS 3 Zrotation Xrotation Yrotation
        JOINT RightLeg
        {
            OFFSET -0.000000 -40.674755 0.000000
            CHANNELS 3 Zrotation Xrotation Yrotation
            JOINT RightFoot
            {
                OFFSET -0.000000 -37.111794 0.000000
                CHANNELS 3 Zrotation Xrotation Yrotation
                JOINT RightToeBase
                {
                    OFFSET -0.000000 -5.489805 12.668781
                    CHANNELS 3 Zrotation Xrotation Yrotation
                    End Site
                    {
                        OFFSET -0.000000 0.000000 3.378341
                    }
                }
            }
        }
    }
}
MOTION
Frames:    7
Frame Time:    0.008333
-3.329713    83.510628    13.107246    2.634046    -4.503539    11.132495    5.773815    -0.738352    2.022768    -6.237026    12.749677    1.354140    -2.982398    0.420172    -3.706560    -1.759035    -4.338421    -4.078842    -0.143131    8.295361    7.288376    -45.397926    42.679287    -36.873852    3.877429    0.159920    -25.672132    -1.979314    1.127915    -4.895359    -1.938555    8.094315    -0.074235    59.540184    24.425167    37.228146    7.686982    16.540453    10.953150    -7.584442    14.694240    17.648138    3.614840    -1.980108    -1.878382    0.878835    13.979880    -8.870944    -5.911170    -6.115965    12.881377    -4.345840    -4.325469    3.289681    2.079898    3.610114    -0.339410    -8.665380    10.036563    -12.615542    5.889508    -8.074147    -0.893557    -1.456568    2.447204    0.095688    
-3.315190    83.512611    13.122238    2.619241    -4.494089    11.030979    5.762844    -0.629331    2.153051    -6.167052    12.559111    1.381186    -2.806046    0.485212    -3.809566    -2.125321    -4.363341    -4.129777    -0.107798    8.381389    7.126752    -45.343254    42.727596    -36.901707    3.861516    0.177445    -25.732870    -1.704687    1.132129    -4.893203    -2.018801    8.166111    -0.337937    59.558628    24.623360    37.351807    7.805565    16.358509    10.980816    -7.476886    14.496474    17.918190    3.609461    -1.969646    -1.859033    0.889488    13.990137    -8.783042    -5.914470    -6.095575    12.853402    -4.381835    -4.367688    3.305201    1.479098    3.459352    -2.685394    -7.832634    10.017913    -10.247343    5.217700    -8.455648    -0.873594    -1.509385    2.470373    0.211127    
-3.300191    83.514961    13.140016    2.603970    -4.487102    10.911380    5.717045    -0.659883    2.170903    -6.106396    12.573291    1.380824    -2.778321    0.466628    -3.794864    -2.155374    -4.284589    -4.106052    -0.102201    8.412185    7.132088    -45.327885    42.737076    -36.939838    3.874097    0.237067    -25.739918    -1.415636    1.182502    -4.893593    -2.026263    8.150578    -0.322238    59.525509    24.680014    37.364487    7.814167    16.342768    11.132339    -7.028630    14.540149    17.889547    3.605408    -1.942751    -1.826967    0.895525    13.989163    -8.721138    -5.898975    -6.105252    12.879826    -4.382196    -4.373059    3.292752    1.477929    3.411927    -2.672860    -7.869555    10.100523    -10.149616    5.336199    -8.397736    -0.821500    -1.446451    2.409302    0.130449    
-3.285137    83.516113    13.156954    2.596207    -4.479351    10.798409    5.644620    -0.695185    2.178694    -6.020776    12.589195    1.374487    -2.746389    0.463651    -3.781820    -2.166091    -4.233380    -4.086161    -0.097277    8.426013    7.126349    -45.352512    42.737503    -36.963593    3.861411    0.281285    -25.699347    -1.211817    1.214268    -4.949548    -2.034918    8.127890    -0.319121    59.465050    24.779833    37.390854    7.943968    16.947836    11.081725    -8.463534    14.911267    18.044378    3.590015    -1.917669    -1.808774    0.907231    13.987312    -8.639235    -5.889441    -6.106830    12.883691    -4.397789    -4.393821    3.293168    1.463594    3.383330    -2.677124    -7.872242    10.127336    -10.049876    5.275661    -8.508795    -0.844548    -1.510517    2.457639    0.236089    
-3.264024    83.509201    13.168317    2.615492    -4.458929    10.679076    5.536622    -0.726068    2.180313    -5.924054    12.595561    1.364444    -2.717094    0.453876    -3.767441    -2.155508    -4.190875    -4.067214    -0.104472    8.421144    7.112725    -45.450665    42.728737    -36.908627    3.883262    0.319481    -25.679596    -1.080321    1.251331    -4.975554    -2.044332    8.118790    -0.313617    59.429119    24.813789    37.442757    7.958203    17.003242    11.155581    -8.301766    14.985574    18.048098    3.538703    -1.909587    -1.778203    0.925297    14.000148    -8.532149    -5.888340    -6.103173    12.860606    -4.398889    -4.387450    3.313176    1.405506    3.341571    -2.669243    -7.869339    10.170468    -9.954736    5.292427    -8.523657    -0.821108    -1.512865    2.448270    0.258904    
-3.251183    83.510010    13.182455    2.602252    -4.454434    10.562370    5.446472    -0.747603    2.160352    -5.815985    12.596052    1.345830    -2.689293    0.439041    -3.743923    -2.103873    -4.138999    -4.042536    -0.109114    8.433249    7.126646    -45.479725    42.751839    -36.904251    3.874003    0.332387    -25.682144    -0.955478    1.256600    -4.959377    -2.038882    8.108433    -0.302014    59.385239    24.841011    37.494812    7.883349    17.168150    11.258434    -7.975464    15.219240    17.807247    3.532039    -1.889763    -1.738603    0.939408    14.012110    -8.513782    -5.864065    -6.116422    12.906170    -4.413991    -4.421372    3.278353    1.392581    3.318740    -2.666539    -7.869363    10.194293    -9.861881    5.327754    -8.543986    -0.797673    -1.516522    2.458860    0.251597    
-3.236783    83.508156    13.190499    2.579366    -4.445214    10.495295    5.380159    -0.778002    2.077756    -5.717474    12.593596    1.307159    -2.718370    0.424733    -3.627986    -1.984776    -4.084329    -3.936485    -0.140049    8.482278    7.148394    -45.559525    42.671669    -36.886013    4.170906    0.629279    -25.484962    -1.210626    1.630531    -5.511213    -2.057761    8.118856    -0.247413    59.382030    24.840906    37.554688    7.858453    17.193438    11.304083    -7.862720    15.259214    17.836754    3.531278    -1.897404    -1.764111    0.947912    14.036603    -8.394988    -5.877639    -6.108399    12.871799    -4.420342    -4.421597    3.299523    1.388144    3.286587    -2.705429    -7.867692    10.222315    -9.761803    5.327496    -8.529699    -0.793297    -1.495915    2.410071    0.274274    
